<svg viewBox="0 0 1200 800" xmlns="http://www.w3.org/2000/svg">
  <!-- Background gradient -->
  <defs>
    <linearGradient id="bgGradient" x1="0%" y1="0%" x2="100%" y2="100%">
      <stop offset="0%" style="stop-color:#1a1a2e;stop-opacity:1" />
      <stop offset="50%" style="stop-color:#16213e;stop-opacity:1" />
      <stop offset="100%" style="stop-color:#0f3460;stop-opacity:1" />
    </linearGradient>
    
    <!-- Node gradients -->
    <radialGradient id="simsGrad" cx="50%" cy="30%" r="60%">
      <stop offset="0%" style="stop-color:#7de26d;stop-opacity:1" />
      <stop offset="100%" style="stop-color:#4CAF50;stop-opacity:1" />
    </radialGradient>
    
    <radialGradient id="citiesGrad" cx="50%" cy="30%" r="60%">
      <stop offset="0%" style="stop-color:#64b5f6;stop-opacity:1" />
      <stop offset="100%" style="stop-color:#2196F3;stop-opacity:1" />
    </radialGradient>
    
    <radialGradient id="minecraftGrad" cx="50%" cy="30%" r="60%">
      <stop offset="0%" style="stop-color:#aed581;stop-opacity:1" />
      <stop offset="100%" style="stop-color:#8BC34A;stop-opacity:1" />
    </radialGradient>
    
    <radialGradient id="nierGrad" cx="50%" cy="30%" r="60%">
      <stop offset="0%" style="stop-color:#ce93d8;stop-opacity:1" />
      <stop offset="100%" style="stop-color:#9C27B0;stop-opacity:1" />
    </radialGradient>
    
    <radialGradient id="blockhoodGrad" cx="50%" cy="30%" r="60%">
      <stop offset="0%" style="stop-color:#ffb74d;stop-opacity:1" />
      <stop offset="100%" style="stop-color:#FF9800;stop-opacity:1" />
    </radialGradient>
    
    <radialGradient id="worldGrad" cx="50%" cy="30%" r="60%">
      <stop offset="0%" style="stop-color:#ef5350;stop-opacity:1" />
      <stop offset="100%" style="stop-color:#F44336;stop-opacity:1" />
    </radialGradient>
    
    <!-- Glow effects -->
    <filter id="glow">
      <feGaussianBlur stdDeviation="3" result="coloredBlur"/>
      <feMerge> 
        <feMergeNode in="coloredBlur"/>
        <feMergeNode in="SourceGraphic"/>
      </feMerge>
    </filter>
    
    <!-- Connection line gradient -->
    <linearGradient id="connectionGrad" x1="0%" y1="0%" x2="100%" y2="0%">
      <stop offset="0%" style="stop-color:#00bcd4;stop-opacity:0.8" />
      <stop offset="50%" style="stop-color:#4fc3f7;stop-opacity:0.6" />
      <stop offset="100%" style="stop-color:#81c784;stop-opacity:0.8" />
    </linearGradient>
    
    <!-- Arrow marker -->
    <marker id="arrowhead" markerWidth="12" markerHeight="8" refX="11" refY="4" orient="auto">
      <polygon points="0 0, 12 4, 0 8" fill="url(#connectionGrad)" stroke="#00bcd4" stroke-width="0.5"/>
    </marker>
    
    <!-- Data flow particles -->
    <circle id="particle" r="2" fill="#00bcd4" opacity="0.7">
      <animate attributeName="opacity" values="0.7;0.3;0.7" dur="2s" repeatCount="indefinite"/>
    </circle>
  </defs>
  
  <!-- Background -->
  <rect width="1200" height="800" fill="url(#bgGradient)"/>
  
  <!-- Grid pattern -->
  <pattern id="grid" width="40" height="40" patternUnits="userSpaceOnUse">
    <path d="M 40 0 L 0 0 0 40" fill="none" stroke="#ffffff" stroke-width="0.3" opacity="0.1"/>
  </pattern>
  <rect width="1200" height="800" fill="url(#grid)"/>
  
  <!-- Title with tech styling -->
  <rect x="250" y="20" width="700" height="50" fill="#0d47a1" stroke="#1976d2" stroke-width="2" rx="10" opacity="0.9"/>
  <text x="600" y="35" text-anchor="middle" font-family="Courier New, monospace" font-size="16" font-weight="bold" fill="#ffffff">
    GAME ECOSYSTEM NETWORK ANALYSIS
  </text>
  <text x="600" y="55" text-anchor="middle" font-family="Courier New, monospace" font-size="12" fill="#81c784">
    Interactive Systems Mapping
  </text>
  
  <!-- Game Nodes with Block'hood-style transparent cubic containers -->
  
  <!-- The Sims -->
  <g transform="translate(200,150)">
    <!-- Cube faces -->
    <polygon points="-50,-30 -50,30 50,30 50,-30" fill="url(#simsGrad)" fill-opacity="0.4" stroke="#2E7D32" stroke-width="3" filter="url(#glow)"/>
    <polygon points="-50,-30 -30,-50 70,-50 50,-30" fill="#66BB6A" fill-opacity="0.3" stroke="#2E7D32" stroke-width="3"/>
    <polygon points="50,-30 70,-50 70,10 50,30" fill="#4CAF50" fill-opacity="0.3" stroke="#2E7D32" stroke-width="3"/>
    <!-- House icon -->
    <rect x="-15" y="-5" width="30" height="20" fill="#ffffff" stroke="#2E7D32" stroke-width="1"/>
    <polygon points="-20,-5 0,-25 20,-5" fill="#8BC34A" stroke="#2E7D32" stroke-width="1"/>
    <rect x="-5" y="5" width="10" height="10" fill="#2E7D32"/>
    <text x="0" y="55" text-anchor="middle" font-family="Arial, sans-serif" font-size="12" font-weight="bold" fill="white">THE SIMS</text>
    <text x="0" y="70" text-anchor="middle" font-family="Arial, sans-serif" font-size="10" fill="#c8e6c9">Life Simulation</text>
  </g>
  
  <!-- Cities Skylines -->
  <g transform="translate(600,120)">
    <!-- Cube faces -->
    <polygon points="-50,-30 -50,30 50,30 50,-30" fill="url(#citiesGrad)" fill-opacity="0.4" stroke="#1565C0" stroke-width="3" filter="url(#glow)"/>
    <polygon points="-50,-30 -30,-50 70,-50 50,-30" fill="#42A5F5" fill-opacity="0.3" stroke="#1565C0" stroke-width="3"/>
    <polygon points="50,-30 70,-50 70,10 50,30" fill="#2196F3" fill-opacity="0.3" stroke="#1565C0" stroke-width="3"/>
    <!-- City skyline icon -->
    <rect x="-25" y="-10" width="8" height="25" fill="#ffffff"/>
    <rect x="-10" y="-20" width="8" height="35" fill="#ffffff"/>
    <rect x="5" y="-5" width="8" height="20" fill="#ffffff"/>
    <rect x="20" y="-15" width="8" height="30" fill="#ffffff"/>
    <text x="0" y="55" text-anchor="middle" font-family="Arial, sans-serif" font-size="12" font-weight="bold" fill="white">CITIES</text>
    <text x="0" y="70" text-anchor="middle" font-family="Arial, sans-serif" font-size="10" fill="#bbdefb">Urban Planning</text>
  </g>
  
  <!-- Minecraft -->
  <g transform="translate(950,150)">
    <!-- Cube faces -->
    <polygon points="-50,-30 -50,30 50,30 50,-30" fill="url(#minecraftGrad)" fill-opacity="0.4" stroke="#558B2F" stroke-width="3" filter="url(#glow)"/>
    <polygon points="-50,-30 -30,-50 70,-50 50,-30" fill="#9CCC65" fill-opacity="0.3" stroke="#558B2F" stroke-width="3"/>
    <polygon points="50,-30 70,-50 70,10 50,30" fill="#8BC34A" fill-opacity="0.3" stroke="#558B2F" stroke-width="3"/>
    <!-- Block grid icon -->
    <rect x="-20" y="-20" width="12" height="12" fill="#ffffff" stroke="#558B2F" stroke-width="1"/>
    <rect x="-5" y="-20" width="12" height="12" fill="#a5d6a7" stroke="#558B2F" stroke-width="1"/>
    <rect x="10" y="-20" width="12" height="12" fill="#ffffff" stroke="#558B2F" stroke-width="1"/>
    <rect x="-20" y="-5" width="12" height="12" fill="#a5d6a7" stroke="#558B2F" stroke-width="1"/>
    <rect x="-5" y="-5" width="12" height="12" fill="#ffffff" stroke="#558B2F" stroke-width="1"/>
    <rect x="10" y="-5" width="12" height="12" fill="#a5d6a7" stroke="#558B2F" stroke-width="1"/>
    <text x="0" y="55" text-anchor="middle" font-family="Arial, sans-serif" font-size="12" font-weight="bold" fill="white">MINECRAFT</text>
    <text x="0" y="70" text-anchor="middle" font-family="Arial, sans-serif" font-size="10" fill="#c8e6c9">Sandbox Builder</text>
  </g>
  
  <!-- NieR: Automata -->
  <g transform="translate(300,450)">
    <!-- Cube faces -->
    <polygon points="-50,-30 -50,30 50,30 50,-30" fill="url(#nierGrad)" fill-opacity="0.4" stroke="#6A1B9A" stroke-width="3" filter="url(#glow)"/>
    <polygon points="-50,-30 -30,-50 70,-50 50,-30" fill="#BA68C8" fill-opacity="0.3" stroke="#6A1B9A" stroke-width="3"/>
    <polygon points="50,-30 70,-50 70,10 50,30" fill="#9C27B0" fill-opacity="0.3" stroke="#6A1B9A" stroke-width="3"/>
    <!-- Android/robot icon -->
    <circle cx="0" cy="-10" r="15" fill="#ffffff" stroke="#6A1B9A" stroke-width="1"/>
    <circle cx="-5" cy="-15" r="2" fill="#6A1B9A"/>
    <circle cx="5" cy="-15" r="2" fill="#6A1B9A"/>
    <rect x="-8" y="5" width="16" height="12" fill="#ffffff" stroke="#6A1B9A" stroke-width="1"/>
    <text x="0" y="55" text-anchor="middle" font-family="Arial, sans-serif" font-size="12" font-weight="bold" fill="white">NIER</text>
    <text x="0" y="70" text-anchor="middle" font-family="Arial, sans-serif" font-size="10" fill="#e1bee7">Existential RPG</text>
  </g>
  
  <!-- Block'hood (Central Node - Larger Cube) -->
  <g transform="translate(600,320)">
    <!-- Cube faces -->
    <polygon points="-60,-40 -60,40 60,40 60,-40" fill="url(#blockhoodGrad)" fill-opacity="0.5" stroke="#F57C00" stroke-width="4" filter="url(#glow)"/>
    <polygon points="-60,-40 -35,-65 85,-65 60,-40" fill="#FFB74D" fill-opacity="0.4" stroke="#F57C00" stroke-width="4"/>
    <polygon points="60,-40 85,-65 85,15 60,40" fill="#FF9800" fill-opacity="0.4" stroke="#F57C00" stroke-width="4"/>
    <!-- Interconnected blocks icon -->
    <rect x="-15" y="-25" width="12" height="12" fill="#ffffff" stroke="#F57C00" stroke-width="1"/>
    <rect x="3" y="-25" width="12" height="12" fill="#ffcc02" stroke="#F57C00" stroke-width="1"/>
    <rect x="-15" y="-10" width="12" height="12" fill="#4caf50" stroke="#F57C00" stroke-width="1"/>
    <rect x="3" y="-10" width="12" height="12" fill="#2196f3" stroke="#F57C00" stroke-width="1"/>
    <rect x="-6" y="5" width="12" height="12" fill="#ffffff" stroke="#F57C00" stroke-width="1"/>
    <!-- Connection lines between blocks -->
    <line x1="-9" y1="-19" x2="-9" y2="-4" stroke="#F57C00" stroke-width="2"/>
    <line x1="9" y1="-19" x2="9" y2="-4" stroke="#F57C00" stroke-width="2"/>
    <line x1="-3" y1="-4" x2="0" y2="5" stroke="#F57C00" stroke-width="2"/>
    <text x="0" y="65" text-anchor="middle" font-family="Arial, sans-serif" font-size="12" font-weight="bold" fill="white">BLOCK'HOOD</text>
    <text x="0" y="80" text-anchor="middle" font-family="Arial, sans-serif" font-size="10" fill="#ffcc80">Eco-Systems</text>
  </g>
  
  <!-- World Game -->
  <g transform="translate(900,450)">
    <!-- Cube faces -->
    <polygon points="-50,-30 -50,30 50,30 50,-30" fill="url(#worldGrad)" fill-opacity="0.4" stroke="#C62828" stroke-width="3" filter="url(#glow)"/>
    <polygon points="-50,-30 -30,-50 70,-50 50,-30" fill="#EF5350" fill-opacity="0.3" stroke="#C62828" stroke-width="3"/>
    <polygon points="50,-30 70,-50 70,10 50,30" fill="#F44336" fill-opacity="0.3" stroke="#C62828" stroke-width="3"/>
    <!-- Globe icon -->
    <circle cx="0" cy="-5" r="18" fill="#ffffff" stroke="#C62828" stroke-width="1"/>
    <path d="M-18,-5 Q-10,-15 0,-5 Q10,-15 18,-5" fill="none" stroke="#C62828" stroke-width="2"/>
    <path d="M-18,-5 Q-10,5 0,-5 Q10,5 18,-5" fill="none" stroke="#C62828" stroke-width="2"/>
    <line x1="-18" y1="-5" x2="18" y2="-5" stroke="#C62828" stroke-width="2"/>
    <text x="0" y="55" text-anchor="middle" font-family="Arial, sans-serif" font-size="12" font-weight="bold" fill="white">WORLD GAME</text>
    <text x="0" y="70" text-anchor="middle" font-family="Arial, sans-serif" font-size="10" fill="#ffcdd2">Global Strategy</text>
  </g>
  
  <!-- Animated Connection Lines with Data Flow -->
  
  <!-- Sims to Cities -->
  <line x1="270" y1="150" x2="530" y2="120" stroke="url(#connectionGrad)" stroke-width="3" marker-end="url(#arrowhead)" opacity="0.8"/>
  <use href="#particle" x="350" y="135">
    <animateMotion dur="3s" repeatCount="indefinite">
      <mpath href="#path1"/>
    </animateMotion>
  </use>
  <path id="path1" d="M270,150 L530,120" fill="none" opacity="0"/>
  
  <!-- Cities to Block'hood -->
  <line x1="600" y1="190" x2="600" y2="250" stroke="url(#connectionGrad)" stroke-width="3" marker-end="url(#arrowhead)" opacity="0.8"/>
  <use href="#particle" x="600" y="220">
    <animateMotion dur="2s" repeatCount="indefinite">
      <mpath href="#path2"/>
    </animateMotion>
  </use>
  <path id="path2" d="M600,190 L600,250" fill="none" opacity="0"/>
  
  <!-- Block'hood to Minecraft -->
  <line x1="680" y1="320" x2="880" y2="150" stroke="url(#connectionGrad)" stroke-width="3" marker-end="url(#arrowhead)" opacity="0.8"/>
  <use href="#particle" x="780" y="235">
    <animateMotion dur="3s" repeatCount="indefinite">
      <mpath href="#path3"/>
    </animateMotion>
  </use>
  <path id="path3" d="M680,320 L880,150" fill="none" opacity="0"/>
  
  <!-- Block'hood to World Game -->
  <line x1="680" y1="320" x2="830" y2="450" stroke="url(#connectionGrad)" stroke-width="3" marker-end="url(#arrowhead)" opacity="0.8"/>
  <use href="#particle" x="755" y="385">
    <animateMotion dur="2.5s" repeatCount="indefinite">
      <mpath href="#path4"/>
    </animateMotion>
  </use>
  <path id="path4" d="M680,320 L830,450" fill="none" opacity="0"/>
  
  <!-- NieR to Block'hood -->
  <line x1="370" y1="450" x2="520" y2="320" stroke="url(#connectionGrad)" stroke-width="3" marker-end="url(#arrowhead)" opacity="0.8"/>
  <use href="#particle" x="445" y="385">
    <animateMotion dur="2.5s" repeatCount="indefinite">
      <mpath href="#path5"/>
    </animateMotion>
  </use>
  <path id="path5" d="M370,450 L520,320" fill="none" opacity="0"/>
  
  <!-- Sims to Block'hood -->
  <line x1="270" y1="150" x2="520" y2="320" stroke="url(#connectionGrad)" stroke-width="3" marker-end="url(#arrowhead)" opacity="0.8"/>
  <use href="#particle" x="395" y="235">
    <animateMotion dur="4s" repeatCount="indefinite">
      <mpath href="#path6"/>
    </animateMotion>
  </use>
  <path id="path6" d="M270,150 L520,320" fill="none" opacity="0"/>
  
  <!-- Connection Labels with Tech Styling -->
  <g transform="translate(400,130)">
    <rect x="-60" y="-10" width="120" height="20" fill="#0d47a1" stroke="#1976d2" stroke-width="1" rx="10" opacity="0.9"/>
    <text x="0" y="5" text-anchor="middle" font-family="Courier New, monospace" font-size="9" fill="#ffffff">POPULATION_MGMT</text>
  </g>
  
  <g transform="translate(620,220)">
    <rect x="-50" y="-10" width="100" height="20" fill="#0d47a1" stroke="#1976d2" stroke-width="1" rx="10" opacity="0.9"/>
    <text x="0" y="5" text-anchor="middle" font-family="Courier New, monospace" font-size="9" fill="#ffffff">URBAN_PLANNING</text>
  </g>
  
  <g transform="translate(780,235)">
    <rect x="-55" y="-10" width="110" height="20" fill="#0d47a1" stroke="#1976d2" stroke-width="1" rx="10" opacity="0.9"/>
    <text x="0" y="5" text-anchor="middle" font-family="Courier New, monospace" font-size="9" fill="#ffffff">RESOURCE_CHAINS</text>
  </g>
  
  <g transform="translate(755,385)">
    <rect x="-60" y="-10" width="120" height="20" fill="#0d47a1" stroke="#1976d2" stroke-width="1" rx="10" opacity="0.9"/>
    <text x="0" y="5" text-anchor="middle" font-family="Courier New, monospace" font-size="9" fill="#ffffff">SYSTEMS_THINKING</text>
  </g>
  
  <g transform="translate(445,385)">
    <rect x="-65" y="-10" width="130" height="20" fill="#0d47a1" stroke="#1976d2" stroke-width="1" rx="10" opacity="0.9"/>
    <text x="0" y="5" text-anchor="middle" font-family="Courier New, monospace" font-size="9" fill="#ffffff">EXISTENTIAL_DESIGN</text>
  </g>
  
  <g transform="translate(395,235)">
    <rect x="-50" y="-10" width="100" height="20" fill="#0d47a1" stroke="#1976d2" stroke-width="1" rx="10" opacity="0.9"/>
    <text x="0" y="5" text-anchor="middle" font-family="Courier New, monospace" font-size="9" fill="#ffffff">NEEDS_BALANCE</text>
  </g>
  
  <!-- Data Flow Legend -->
  <g transform="translate(50,650)">
    <rect x="0" y="0" width="1100" height="120" fill="#1a1a2e" stroke="#00bcd4" stroke-width="2" rx="10" opacity="0.95"/>
    <text x="550" y="25" text-anchor="middle" font-family="Courier New, monospace" font-size="14" font-weight="bold" fill="#00bcd4">
      NETWORK FLOW ANALYSIS
    </text>
    
    <!-- Flow indicators -->
    <circle cx="80" cy="50" r="8" fill="#4CAF50"/>
    <text x="100" y="55" font-family="Courier New, monospace" font-size="10" fill="#ffffff">LIFE_SIM → Individual agency & social dynamics</text>
    
    <circle cx="350" cy="50" r="8" fill="#2196F3"/>
    <text x="370" y="55" font-family="Courier New, monospace" font-size="10" fill="#ffffff">CITY_BUILD → Infrastructure & systems design</text>
    
    <circle cx="650" cy="50" r="8" fill="#FF9800"/>
    <text x="670" y="55" font-family="Courier New, monospace" font-size="10" fill="#ffffff">ECO_SYS → Sustainability & interconnection</text>
    
    <circle cx="80" cy="80" r="8" fill="#8BC34A"/>
    <text x="100" y="85" font-family="Courier New, monospace" font-size="10" fill="#ffffff">SANDBOX → Creative problem-solving</text>
    
    <circle cx="350" cy="80" r="8" fill="#9C27B0"/>
    <text x="370" y="85" font-family="Courier New, monospace" font-size="10" fill="#ffffff">NARRATIVE → Philosophical exploration</text>
    
    <circle cx="650" cy="80" r="8" fill="#F44336"/>
    <text x="670" y="85" font-family="Courier New, monospace" font-size="10" fill="#ffffff">STRATEGY → Global decision-making</text>
    
    <!-- Central convergence note -->
    <text x="80" y="105" font-family="Courier New, monospace" font-size="9" fill="#81c784">
      CONVERGENCE POINT: Block'hood represents the synthesis of micro-management, resource flow, and ecological thinking
    </text>
  </g>
  
  <!-- Floating data particles for ambient effect -->
  <circle cx="100" cy="100" r="1" fill="#00bcd4" opacity="0.5">
    <animate attributeName="cy" values="100;200;100" dur="5s" repeatCount="indefinite"/>
    <animate attributeName="opacity" values="0.5;0.1;0.5" dur="5s" repeatCount="indefinite"/>
  </circle>
  
  <circle cx="1000" cy="300" r="1" fill="#4fc3f7" opacity="0.5">
    <animate attributeName="cy" values="300;400;300" dur="6s" repeatCount="indefinite"/>
    <animate attributeName="opacity" values="0.5;0.1;0.5" dur="6s" repeatCount="indefinite"/>
  </circle>
  
  <circle cx="500" cy="500" r="1" fill="#81c784" opacity="0.5">
    <animate attributeName="cy" values="500;600;500" dur="4s" repeatCount="indefinite"/>
    <animate attributeName="opacity" values="0.5;0.1;0.5" dur="4s" repeatCount="indefinite"/>
  </circle>
</svg>